<svg width="15" height="17" viewBox="0 0 15 17" fill="none" xmlns="http://www.w3.org/2000/svg">
<path d="M4.5 0.75V3.75M10.5 0.75V3.75" stroke="#6B7280" stroke-width="1.5" stroke-linecap="round" stroke-linejoin="round"/>
<path d="M2.25 2.25H12.75C13.5779 2.25 14.25 2.92213 14.25 3.75V14.25C14.25 15.0779 13.5779 15.75 12.75 15.75H2.25C1.42213 15.75 0.75 15.0779 0.75 14.25V3.75C0.75 2.92213 1.42213 2.25 2.25 2.25V2.25" stroke="#6B7280" stroke-width="1.5" stroke-linecap="round" stroke-linejoin="round"/>
<path d="M0.75 6.75H14.25M4.5 9.75H4.5075M7.5 9.75H7.5075M10.5 9.75H10.5075M4.5 12.75H4.5075M7.5 12.75H7.5075M10.5 12.75H10.5075" stroke="#6B7280" stroke-width="1.5" stroke-linecap="round" stroke-linejoin="round"/>
</svg>
