<svg width="16" height="16" viewBox="0 0 16 16" fill="none" xmlns="http://www.w3.org/2000/svg">
<path d="M6.66666 7.99998H9.33333M6.66666 5.33331H9.33333M9.33333 14V12C9.33333 11.2641 8.73588 10.6666 8 10.6666C7.26411 10.6666 6.66666 11.2641 6.66666 12V14" stroke="#6B7280" stroke-width="1.33333" stroke-linecap="round" stroke-linejoin="round"/>
<path d="M4 6.66669H2.66667C1.93078 6.66669 1.33334 7.26413 1.33334 8.00002V12.6667C1.33334 13.4026 1.93078 14 2.66667 14H13.3333C14.0692 14 14.6667 13.4026 14.6667 12.6667V6.00002C14.6667 5.26413 14.0692 4.66669 13.3333 4.66669H12" stroke="#6B7280" stroke-width="1.33333" stroke-linecap="round" stroke-linejoin="round"/>
<path d="M4 14V3.33333C4 2.59745 4.59745 2 5.33333 2H10.6667C11.4026 2 12 2.59745 12 3.33333V14" stroke="#6B7280" stroke-width="1.33333" stroke-linecap="round" stroke-linejoin="round"/>
</svg>
