<svg width="12" height="12" viewBox="0 0 12 12" fill="none" xmlns="http://www.w3.org/2000/svg">
<path d="M1.16659 0.583336H4.08325C4.4052 0.583336 4.66658 0.844719 4.66658 1.16667V5.25C4.66658 5.57195 4.4052 5.83334 4.08325 5.83334H1.16659C0.844635 5.83334 0.583252 5.57195 0.583252 5.25V1.16667C0.583252 0.844719 0.844635 0.583336 1.16659 0.583336V0.583336" stroke="#6B7280" stroke-width="1.16667" stroke-linecap="round" stroke-linejoin="round"/>
<path d="M7.58333 0.583336H10.5C10.822 0.583336 11.0833 0.844719 11.0833 1.16667V2.91667C11.0833 3.23862 10.822 3.5 10.5 3.5H7.58333C7.26138 3.5 7 3.23862 7 2.91667V1.16667C7 0.844719 7.26138 0.583336 7.58333 0.583336V0.583336" stroke="#6B7280" stroke-width="1.16667" stroke-linecap="round" stroke-linejoin="round"/>
<path d="M7.58333 5.83334H10.5C10.822 5.83334 11.0833 6.09472 11.0833 6.41667V10.5C11.0833 10.822 10.822 11.0833 10.5 11.0833H7.58333C7.26138 11.0833 7 10.822 7 10.5V6.41667C7 6.09472 7.26138 5.83334 7.58333 5.83334V5.83334" stroke="#6B7280" stroke-width="1.16667" stroke-linecap="round" stroke-linejoin="round"/>
<path d="M1.16659 8.16667H4.08325C4.4052 8.16667 4.66658 8.42805 4.66658 8.75001V10.5C4.66658 10.822 4.4052 11.0833 4.08325 11.0833H1.16659C0.844635 11.0833 0.583252 10.822 0.583252 10.5V8.75001C0.583252 8.42805 0.844635 8.16667 1.16659 8.16667V8.16667" stroke="#6B7280" stroke-width="1.16667" stroke-linecap="round" stroke-linejoin="round"/>
</svg>
