<svg width="12" height="15" viewBox="0 0 12 15" fill="none" xmlns="http://www.w3.org/2000/svg">
<path d="M11.3333 6.00002C11.3333 9.32869 7.64067 12.7954 6.40067 13.866C6.16336 14.0445 5.83665 14.0445 5.59934 13.866C4.35934 12.7954 0.666672 9.32869 0.666672 6.00002C0.666672 3.05647 3.05646 0.666687 6.00001 0.666687C8.94355 0.666687 11.3333 3.05647 11.3333 6.00002" stroke="#6B7280" stroke-width="1.33333" stroke-linecap="round" stroke-linejoin="round"/>
<path d="M4.00002 6.00006C4.00002 7.10389 4.89619 8.00006 6.00002 8.00006C7.10385 8.00006 8.00002 7.10389 8.00002 6.00006C8.00002 4.89623 7.10385 4.00006 6.00002 4.00006C4.89619 4.00006 4.00002 4.89623 4.00002 6.00006V6.00006" stroke="#6B7280" stroke-width="1.33333" stroke-linecap="round" stroke-linejoin="round"/>
</svg>
