<svg width="12" height="15" viewBox="0 0 12 15" fill="none" xmlns="http://www.w3.org/2000/svg">
<path d="M11.3333 5.99999C11.3333 9.32866 7.64066 12.7953 6.40066 13.866C6.16335 14.0444 5.83663 14.0444 5.59932 13.866C4.35932 12.7953 0.666656 9.32866 0.666656 5.99999C0.666656 3.05644 3.05644 0.666656 5.99999 0.666656C8.94354 0.666656 11.3333 3.05644 11.3333 5.99999" stroke="#6B7280" stroke-width="1.33333" stroke-linecap="round" stroke-linejoin="round"/>
<path d="M4 5.99997C4 7.1038 4.89617 7.99997 6 7.99997C7.10383 7.99997 8 7.1038 8 5.99997C8 4.89614 7.10383 3.99997 6 3.99997C4.89617 3.99997 4 4.89614 4 5.99997V5.99997" stroke="#6B7280" stroke-width="1.33333" stroke-linecap="round" stroke-linejoin="round"/>
</svg>
