<svg width="12" height="12" viewBox="0 0 12 12" fill="none" xmlns="http://www.w3.org/2000/svg">
<path d="M1.16665 0.583332H4.08331C4.40526 0.583332 4.66665 0.844715 4.66665 1.16667V4.08333C4.66665 4.40528 4.40526 4.66667 4.08331 4.66667H1.16665C0.844696 4.66667 0.583313 4.40528 0.583313 4.08333V1.16667C0.583313 0.844715 0.844696 0.583332 1.16665 0.583332V0.583332" stroke="#6B7280" stroke-width="1.16667" stroke-linecap="round" stroke-linejoin="round"/>
<path d="M7.58333 0.583332H10.5C10.822 0.583332 11.0833 0.844715 11.0833 1.16667V4.08333C11.0833 4.40528 10.822 4.66667 10.5 4.66667H7.58333C7.26138 4.66667 7 4.40528 7 4.08333V1.16667C7 0.844715 7.26138 0.583332 7.58333 0.583332V0.583332" stroke="#6B7280" stroke-width="1.16667" stroke-linecap="round" stroke-linejoin="round"/>
<path d="M7.58333 7H10.5C10.822 7 11.0833 7.26138 11.0833 7.58333V10.5C11.0833 10.8219 10.822 11.0833 10.5 11.0833H7.58333C7.26138 11.0833 7 10.8219 7 10.5V7.58333C7 7.26138 7.26138 7 7.58333 7V7" stroke="#6B7280" stroke-width="1.16667" stroke-linecap="round" stroke-linejoin="round"/>
<path d="M1.16665 7H4.08331C4.40526 7 4.66665 7.26138 4.66665 7.58333V10.5C4.66665 10.8219 4.40526 11.0833 4.08331 11.0833H1.16665C0.844696 11.0833 0.583313 10.8219 0.583313 10.5V7.58333C0.583313 7.26138 0.844696 7 1.16665 7V7" stroke="#6B7280" stroke-width="1.16667" stroke-linecap="round" stroke-linejoin="round"/>
</svg>
