<svg width="18" height="18" viewBox="0 0 18 18" fill="none" xmlns="http://www.w3.org/2000/svg">
<path d="M3 4.5H15C15.8279 4.5 16.5 5.17213 16.5 6V12C16.5 12.8279 15.8279 13.5 15 13.5H3C2.17213 13.5 1.5 12.8279 1.5 12V6C1.5 5.17213 2.17213 4.5 3 4.5V4.5" stroke="#6B7280" stroke-width="1.5" stroke-linecap="round" stroke-linejoin="round"/>
<path d="M7.5 9C7.5 9.82787 8.17213 10.5 9 10.5C9.82787 10.5 10.5 9.82787 10.5 9C10.5 8.17213 9.82787 7.5 9 7.5C8.17213 7.5 7.5 8.17213 7.5 9V9" stroke="#6B7280" stroke-width="1.5" stroke-linecap="round" stroke-linejoin="round"/>
<path d="M4.5 9H4.5075M13.5 9H13.5075" stroke="#6B7280" stroke-width="1.5" stroke-linecap="round" stroke-linejoin="round"/>
</svg>
