<svg width="19" height="17" viewBox="0 0 19 17" fill="none" xmlns="http://www.w3.org/2000/svg">
<path d="M12.5 15.8333V14.1667C12.5 12.3257 11.0077 10.8333 9.16671 10.8333H4.16671C2.32576 10.8333 0.833374 12.3257 0.833374 14.1667V15.8333M12.5 0.940002C13.9702 1.32114 14.9969 2.64789 14.9969 4.16667C14.9969 5.68545 13.9702 7.0122 12.5 7.39334M17.5 15.8333V14.1667C17.4989 12.6476 16.4709 11.3214 15 10.9417" stroke="#6B7280" stroke-width="1.66667" stroke-linecap="round" stroke-linejoin="round"/>
<path d="M3.33337 4.16668C3.33337 6.00639 4.82699 7.50001 6.66671 7.50001C8.50642 7.50001 10 6.00639 10 4.16668C10 2.32696 8.50642 0.833344 6.66671 0.833344C4.82699 0.833344 3.33337 2.32696 3.33337 4.16668V4.16668" stroke="#6B7280" stroke-width="1.66667" stroke-linecap="round" stroke-linejoin="round"/>
</svg>
