<svg width="15" height="11" viewBox="0 0 15 11" fill="none" xmlns="http://www.w3.org/2000/svg">
<path d="M13.6126 4.61489C13.8565 4.50728 14.0129 4.26467 14.0101 3.99805C14.0074 3.73144 13.846 3.49211 13.5999 3.38956L7.8859 0.786895C7.53443 0.626577 7.13071 0.626577 6.77923 0.786895L1.0659 3.38689C0.823372 3.49311 0.666687 3.73279 0.666687 3.99756C0.666687 4.26233 0.823372 4.50201 1.0659 4.60823L6.77923 7.21356C7.13071 7.37388 7.53443 7.37388 7.8859 7.21356L13.6126 4.61489M13.9992 4.00023V8.00023" stroke="#6B7280" stroke-width="1.33333" stroke-linecap="round" stroke-linejoin="round"/>
<path d="M3.33258 5.6669V8.00023C3.33258 9.10406 5.12492 10.0002 7.33258 10.0002C9.54024 10.0002 11.3326 9.10406 11.3326 8.00023V5.6669" stroke="#6B7280" stroke-width="1.33333" stroke-linecap="round" stroke-linejoin="round"/>
</svg>
