<svg width="18" height="15" viewBox="0 0 18 15" fill="none" xmlns="http://www.w3.org/2000/svg">
<path d="M13.6559 0.833344C14.5763 0.833344 15.3225 1.57954 15.3225 2.50001V9.60501C15.3224 9.86453 15.3829 10.1205 15.4992 10.3525L16.3892 12.125C16.5198 12.3843 16.5061 12.6928 16.353 12.9395C16.1999 13.1862 15.9295 13.3354 15.6392 13.3333H1.67253C1.38222 13.3354 1.11178 13.1862 0.958675 12.9395C0.805572 12.6928 0.791878 12.3843 0.922528 12.125L1.81253 10.3525C1.92881 10.1205 1.98931 9.86453 1.98919 9.60501V2.50001C1.98919 1.57954 2.73539 0.833344 3.65586 0.833344H13.6559M15.3675 9.98918H1.94419" stroke="#6B7280" stroke-width="1.66667" stroke-linecap="round" stroke-linejoin="round"/>
</svg>
